# xmcd
#
# Track frame offsets: 
#        150
#        22945
#        72133
#        88855
#        120044
#        137272
#        154963
#        175877
#        187783
#        201243
#
# Disc length: 3067 seconds
#
# Revision: 2
# Processed by: cddbd v1.5.2PL0 Copyright (c) Steve Scherf et al.
# Submitted via: ExactAudioCopy v0.99pb5
#
DISCID=740bf90a
DTITLE=Charlie Parker - Round About Midnight
DYEAR=2000
DGENRE=Blues
TTITLE0=Confirmation
TTITLE1=Indiana
TTITLE2=Get happy
TTITLE3=Now's the time
TTITLE4=Embraceable you
TTITLE5=Dizzy atmosphere
TTITLE6=Big foot
TTITLE7=Bongo bop
TTITLE8=Happy bird blues
TTITLE9=Round about midnight
EXTD=
EXTT0=
EXTT1=
EXTT2=
EXTT3=
EXTT4=
EXTT5=
EXTT6=
EXTT7=
EXTT8=
EXTT9=
PLAYORDER=
